<svg width="78" height="22" viewBox="0 0 78 22" fill="none" xmlns="http://www.w3.org/2000/svg">
<g id="Frame" clip-path="url(#clip0_264_1346)">
<g id="Group">
<path id="Vector" d="M44.3573 3.63966C45.2825 3.63966 45.9858 2.96285 45.9858 2.06043C45.9858 1.15801 45.3196 0.481201 44.4683 0.481201C43.543 0.481201 42.8398 1.23322 42.8398 2.13563C42.8583 3.03805 43.5245 3.63966 44.3573 3.63966Z" fill="#01012D"/>
<path id="Vector_2" d="M71.005 6.64771C67.1374 6.64771 64.306 8.97895 63.5658 13.021C63.4548 13.6226 63.4178 14.2242 63.4178 14.7883C63.4178 14.8447 63.4178 14.9011 63.4178 14.9575C60.9751 17.2887 57.9217 19.4319 54.6833 19.4319C51.7409 19.4319 49.9274 17.7023 49.9274 14.8635C49.9274 14.6567 49.9274 14.4499 49.9459 14.243C49.9644 14.0174 50.0014 13.7918 50.0384 13.5662C50.5381 10.8026 52.6107 8.71574 55.1089 8.71574C56.8484 8.71574 57.7552 9.65576 57.7552 10.9906C57.7552 11.7426 57.4591 12.3818 56.9039 12.9082C56.4598 13.3218 56.3488 13.5474 56.2377 13.8482C56.0897 14.4499 56.5338 14.9763 57.126 14.9763C57.5331 14.9763 57.9402 14.7507 58.3473 14.4499C59.4947 13.5098 60.0683 12.2878 60.0683 10.7838C60.0683 8.26454 58.2548 6.66651 55.1644 6.66651C50.9267 6.66651 47.5032 10.2198 47.5032 14.9763C47.5032 15.1831 47.5032 15.4087 47.5217 15.6155C45.5971 18.5671 44.1167 19.4695 43.3025 19.4695C42.4512 19.4695 42.1922 18.8303 42.4512 17.5707L43.0804 14.5063L44.4498 8.11413C44.6349 7.24932 44.1537 6.68531 43.3025 6.68531C42.7473 6.68531 42.3772 6.94851 42.2662 7.51252L40.7858 14.5063L40.5267 15.7847C38.6391 18.6047 37.2142 19.4884 36.4 19.4884C35.5488 19.4884 35.2897 18.8491 35.5488 17.5707L36.1779 14.5063H36.2149L36.7331 12.0058C36.8441 11.4042 36.9181 10.8402 36.9181 10.3514C36.9181 7.92613 35.5488 6.68531 33.4947 6.68531C31.6071 6.68531 29.7751 7.62532 28.6278 9.67456C28.7388 7.83213 27.6285 6.68531 25.5744 6.68531C23.7609 6.68531 21.8548 7.85093 20.6335 9.63696L21.0036 7.98253C21.1516 7.26812 20.7815 6.74171 20.0783 6.70411C19.3751 6.6289 18.968 6.92971 18.7829 7.56892L17.1174 15.6155C15.1929 18.5671 13.7495 19.4695 12.9352 19.4695C12.084 19.4695 11.8249 18.8303 12.084 17.5519L12.7132 14.4875L14.0826 8.15173C14.2306 7.51252 13.9345 6.98611 13.2313 6.83571C12.5281 6.68531 12.01 7.02371 11.8619 7.73813L11.6769 8.60294C10.9367 7.36212 9.60427 6.64771 7.88327 6.64771C3.60854 6.64771 0 10.8402 0 15.7659C0 19.3567 1.88754 21.4624 4.82989 21.4624C6.79146 21.4624 8.47544 20.5224 9.6968 18.8867C9.77082 20.5788 10.6961 21.4248 12.4541 21.4248C13.842 21.4248 15.1189 20.7104 16.4142 19.2251L16.2292 20.1652C16.0811 20.8796 16.4512 21.406 17.1544 21.4436C17.8577 21.5564 18.3018 21.1428 18.4128 20.5412L19.7822 14.1114C20.8555 10.8214 22.8726 8.75335 24.8342 8.75335C26.2036 8.75335 26.6847 9.65576 26.3146 11.4794L24.5381 19.9772C24.39 20.6916 24.7231 21.1804 25.4263 21.2932C26.1295 21.406 26.6477 21.0676 26.7957 20.3532L27.721 15.8975C28.6093 11.4794 30.8484 8.75335 33.069 8.75335C34.1053 8.75335 34.7715 9.31736 34.7715 10.6334C34.7715 10.9718 34.7345 11.3478 34.6235 11.7614L34.0313 14.4875H33.9943L33.4021 17.3263C33.2911 17.8151 33.2541 18.3039 33.2541 18.7175C33.2541 20.56 34.1794 21.4436 35.9744 21.4436C37.4363 21.4436 38.7872 20.6352 40.1381 18.9807C40.2306 20.6352 41.1374 21.4436 42.8584 21.4436C44.6719 21.4436 46.3004 20.2028 48.0214 17.6271C48.9281 20.0712 51.2043 21.4812 54.3502 21.4812C57.5516 21.4812 60.9011 19.8456 63.7694 17.0443C64.6021 19.7704 67.0078 21.5188 70.4498 21.5188C74.3915 21.5188 77.1488 19.2815 77.889 15.2019C78 14.6003 78.037 14.0362 78.037 13.4722C78 9.44896 75.3167 6.64771 71.005 6.64771ZM10.6406 13.5286C9.97438 16.7811 7.80925 19.4508 5.25552 19.4508C3.44199 19.4508 2.35018 18.1347 2.35018 15.5967C2.35018 11.8554 4.88541 8.67814 7.9573 8.67814C9.88185 8.67814 10.7886 10.0318 10.7886 12.0058C10.7886 12.5134 10.7516 13.0398 10.6406 13.5286ZM75.5388 14.9199C74.9466 17.7587 73.0406 19.4508 70.3758 19.4508C67.526 19.4508 65.805 17.5519 65.731 14.8071C65.731 14.7507 65.731 14.6943 65.731 14.6191C65.731 14.3747 65.7495 14.1302 65.768 13.8858C65.7865 13.679 65.8235 13.4534 65.879 13.2278C66.4342 10.3514 68.3402 8.69694 70.968 8.69694C73.8733 8.69694 75.6868 10.7274 75.6868 13.5662C75.6868 14.0174 75.6498 14.4687 75.5388 14.9199Z" fill="#01012D"/>
<path id="Vector_3" d="M74.0028 14.1867C73.5587 13.9611 73.1331 14.1115 72.8555 14.4875C72.9665 14.3371 72.837 14.5063 72.8185 14.5251C72.7815 14.5815 72.7259 14.6191 72.6704 14.6755C72.6519 14.6943 72.6149 14.7319 72.5964 14.7319C72.5594 14.7507 72.5224 14.7883 72.4854 14.8071C72.3929 14.8635 72.3188 14.9011 72.2263 14.9387C72.2078 14.9575 72.1523 14.9763 72.1153 14.9763C72.0598 14.9951 72.0042 15.0139 71.9487 15.0327C71.8377 15.0703 71.7082 15.0891 71.5971 15.1267C71.5416 15.1455 71.4861 15.1455 71.4121 15.1643C71.19 15.1831 70.9494 15.2207 70.7274 15.2019C70.6163 15.2019 70.5053 15.1831 70.3943 15.1831C70.3758 15.1831 70.3573 15.1831 70.3388 15.1643C70.2832 15.1455 70.2092 15.1455 70.1537 15.1267C69.8946 15.0703 69.6356 14.9951 69.395 14.9011C69.3765 14.9011 69.284 14.8447 69.2654 14.8447C69.2469 14.8259 69.2099 14.8259 69.2099 14.8071C69.1174 14.7507 69.0064 14.7131 68.9138 14.6379C68.8768 14.6191 68.8398 14.5815 68.8213 14.5627C68.8028 14.5439 68.7843 14.5251 68.7843 14.5063C68.5622 14.1303 68.0256 13.9799 67.6555 14.2243C67.2669 14.4687 67.1373 14.9575 67.3594 15.3899C67.6555 15.9351 68.2847 16.2359 68.8398 16.4615C69.4505 16.7059 70.1167 16.8751 70.7829 16.8751C71.3751 16.8751 71.9857 16.7999 72.5409 16.6119C73.2996 16.3675 73.8918 15.9351 74.3544 15.2959C74.558 14.9951 74.3729 14.3935 74.0028 14.1867Z" fill="#01012D"/>
</g>
</g>
<defs>
<clipPath id="clip0_264_1346">
<rect width="78" height="21" fill="white" transform="translate(0 0.5)"/>
</clipPath>
</defs>
</svg>
